<?xml version="1.0" encoding="UTF-8" standalone="no"?>
<svg
   id="Layer_1"
   data-name="Layer 1"
   version="1.1"
   viewBox="0 0 200 200"
   sodipodi:docname="Quest.svg"
   width="200"
   height="200"
   inkscape:version="1.3.2 (091e20ef0f, 2023-11-25, custom)"
   xmlns:inkscape="http://www.inkscape.org/namespaces/inkscape"
   xmlns:sodipodi="http://sodipodi.sourceforge.net/DTD/sodipodi-0.dtd"
   xmlns="http://www.w3.org/2000/svg"
   xmlns:svg="http://www.w3.org/2000/svg">
  <sodipodi:namedview
     id="namedview8"
     pagecolor="#ffffff"
     bordercolor="#000000"
     borderopacity="0.25"
     inkscape:showpageshadow="2"
     inkscape:pageopacity="0.0"
     inkscape:pagecheckerboard="0"
     inkscape:deskcolor="#d1d1d1"
     inkscape:zoom="1.0546875"
     inkscape:cx="594.96296"
     inkscape:cy="257.42222"
     inkscape:window-width="1906"
     inkscape:window-height="1025"
     inkscape:window-x="1920"
     inkscape:window-y="41"
     inkscape:window-maximized="1"
     inkscape:current-layer="Layer_1" />
  <defs
     id="defs1">
    <style
       id="style1">
      .cls-1 {
        fill: #f79420;
      }

      .cls-1, .cls-2 {
        stroke-width: 0px;
      }

      .cls-2 {
        fill: #0075bb;
      }
    </style>
  </defs>
  <g
     id="g8"
     transform="matrix(0.36495847,0,0,0.36495847,-7.8275551,-30.913637)">
    <path
       class="cls-1"
       d="M 274.54,320.47 279,305.2 c 1.64,-5.66 6.83,-9.54 12.75,-9.54 h 35.55 l -15.75,-48.48 c 9.94,1.61 19.66,4.49 28.86,8.55 l 11.36,35 c 0.95,2.92 3.69,4.93 6.76,4.93 h 103.83 c 5.74,0 11.14,1.79 15.6,5.22 4.06,3.14 7.05,7.42 8.66,12.39 1.61,4.97 1.68,10.19 0.26,15.09 -1.57,5.41 -4.86,10.05 -9.54,13.41 l -9.86,7.16 c -0.4,0.33 -0.88,0.48 -1.39,0.48 -0.66,0 -1.35,-0.29 -1.83,-0.8 -0.29,-0.37 -0.66,-0.95 -0.58,-1.83 0.69,-7.13 0.33,-13.41 -1.21,-19.8 -0.91,-3.8 -4.35,-6.5 -8.26,-6.5 H 274.53 Z"
       id="path2" />
    <path
       class="cls-1"
       d="m 191.6,542.91 c -5.15,-0.14 -10.08,-1.83 -14.29,-4.9 -4.24,-3.07 -7.38,-7.23 -9.1,-12.09 -1.9,-5.26 -1.97,-10.96 -0.18,-16.44 l 3.87,-11.87 c 0.4,-1.24 1.5,-1.68 2.3,-1.68 0.4,0 1.42,0.15 2.05,1.21 3.69,6.36 7.64,11.29 12.42,15.49 1.57,1.35 3.58,2.12 5.63,2.12 1.83,0 3.54,-0.55 5.01,-1.61 l 145.15,-105.47 5.33,15.05 c 1.94,5.52 0,11.73 -4.71,15.16 L 207.27,538.02 c -4.42,3.22 -9.61,4.93 -14.94,4.93 z m 230.79,-30.76 c -0.18,0 -0.37,-0.07 -0.51,-0.22 l -31.9,-23.82 -8.7,-26.31 -40.08,-123.31 16.33,-0.44 c 5.77,0 10.82,3.69 12.6,9.17 l 10.96,33.8 41.07,-29.92 c 0.88,5.85 1.35,11.84 1.35,17.79 0,4.09 -0.22,8.26 -0.66,12.39 l -29.52,21.52 c -2.48,1.83 -3.51,5.01 -2.56,7.97 l 32.08,98.72 c 0.15,0.48 0.29,0.99 0.44,1.46 0.07,0.33 0.03,0.58 -0.15,0.8 -0.18,0.22 -0.48,0.4 -0.77,0.4 M 206.73,471.19 c -7.09,-7.16 -13.26,-15.16 -18.34,-23.82 l 11.76,-36.61 c 0.91,-2.96 -0.11,-6.14 -2.59,-7.93 l -83.99,-61.05 c -4.68,-3.36 -7.97,-8 -9.53,-13.41 -1.46,-4.93 -1.35,-10.12 0.25,-15.09 1.61,-4.97 4.6,-9.24 8.66,-12.39 4.46,-3.43 9.83,-5.26 15.6,-5.26 h 12.02 c 0.99,0 1.79,0.55 2.19,1.43 0.4,0.88 0.26,1.83 -0.36,2.56 -4.79,5.44 -8.04,10.63 -10.6,16.84 -1.46,3.58 -0.26,7.71 2.92,10.01 l 145.05,105.4 -12.28,9.5 c -1.83,1.39 -3.87,2.41 -6.1,2.81 -3.65,0.59 -7.23,-0.26 -10.12,-2.34 l -28.42,-20.68 -16.11,50.02 z m 16.98,-102.04 c -4.9,-3.32 -7.01,-9.46 -5.19,-15.09 l 10.92,-33.58 h -52.21 c 4.6,-8.95 10.3,-17.28 17.02,-24.84 h 38.11 c 3.07,0 5.81,-1.97 6.76,-4.9 l 32.04,-98.75 c 1.79,-5.48 5.19,-10.05 9.83,-13.19 4.24,-2.89 9.25,-4.42 14.47,-4.42 5.22,0 10.2,1.53 14.43,4.42 4.64,3.14 8.04,7.71 9.79,13.19 l 3.69,11.29 c 0.33,0.99 -0.07,1.75 -0.36,2.12 -0.44,0.66 -1.17,1.02 -1.9,1.02 -0.33,0 -0.66,-0.07 -0.95,-0.18 -6.5,-2.81 -12.42,-4.24 -19.18,-4.71 h -0.58 c -3.69,0 -6.94,2.34 -8.11,5.88 l -55.46,170.66 -13.12,-8.91 z"
       id="path3" />
    <path
       class="cls-2"
       d="m 249.63,258.39 8.99,-27.73 c -45.3,11.58 -82.35,43.99 -100.32,86.37 -1.57,3.69 -0.29,7.93 3.03,10.16 l 14.69,9.94 c 11.47,-35.99 38.73,-64.96 73.62,-78.73"
       id="path4" />
    <path
       class="cls-2"
       d="m 392.43,295.65 h 29.01 c -24.3,-38.47 -65.73,-65.07 -113.48,-69.09 -3.98,-0.33 -7.63,2.23 -8.69,6.06 l -4.82,17.06 c 0.37,0 0.7,-0.04 1.02,-0.04 39.02,0 73.95,17.94 96.96,46"
       id="path5" />
    <path
       class="cls-2"
       d="m 420.85,375.04 c 0,24.81 -7.27,47.93 -19.77,67.44 l 8.99,27.66 c 21.45,-25.83 34.38,-58.97 34.38,-95.1 0,-11.33 -1.28,-22.36 -3.73,-32.96 -0.88,-3.87 -4.42,-6.58 -8.37,-6.47 l -17.72,0.58 c 3.98,12.24 6.21,25.28 6.21,38.84"
       id="path6" />
    <path
       class="cls-2"
       d="m 170.4,383.1 -23.6,-17.13 c -0.18,2.99 -0.29,6.03 -0.29,9.1 0,44.39 19.55,84.29 50.49,111.58 2.96,2.63 7.42,2.81 10.56,0.36 l 14.1,-10.74 C 192.47,454.93 172.85,421.32 170.4,383.11"
       id="path7" />
    <path
       class="cls-2"
       d="m 413.77,529.22 -55.64,-40.41 c -2.45,-1.79 -5.66,-2.12 -8.4,-0.8 -16.4,7.97 -34.82,12.39 -54.26,12.39 -10.7,0 -21.12,-1.35 -31.05,-3.91 l -23.53,17.14 c 16.92,6.68 35.33,10.41 54.58,10.41 19.25,0 37.67,-3.73 54.58,-10.41 l 34.01,24.7 c 7.96,5.77 18.56,6.28 27.04,1.28 l 2.23,-1.28 c 3.36,-2.01 3.62,-6.79 0.44,-9.1"
       id="path8" />
  </g>
</svg>
