<?xml version="1.0" encoding="UTF-8" standalone="no"?>
<svg
   width="200"
   height="200"
   viewBox="0 0 200 200"
   version="1.1"
   id="svg1"
   sodipodi:docname="scratch.svg"
   inkscape:version="1.3.2 (091e20ef0f, 2023-11-25, custom)"
   xmlns:inkscape="http://www.inkscape.org/namespaces/inkscape"
   xmlns:sodipodi="http://sodipodi.sourceforge.net/DTD/sodipodi-0.dtd"
   xmlns="http://www.w3.org/2000/svg"
   xmlns:svg="http://www.w3.org/2000/svg"
   xmlns:rdf="http://www.w3.org/1999/02/22-rdf-syntax-ns#"
   xmlns:cc="http://creativecommons.org/ns#"
   xmlns:dc="http://purl.org/dc/elements/1.1/">
  <defs
     id="defs1" />
  <sodipodi:namedview
     id="namedview1"
     pagecolor="#ffffff"
     bordercolor="#000000"
     borderopacity="0.25"
     inkscape:showpageshadow="2"
     inkscape:pageopacity="0.0"
     inkscape:pagecheckerboard="0"
     inkscape:deskcolor="#d1d1d1"
     inkscape:zoom="2.1071429"
     inkscape:cx="212.37288"
     inkscape:cy="55.762712"
     inkscape:window-width="1906"
     inkscape:window-height="1025"
     inkscape:window-x="1920"
     inkscape:window-y="41"
     inkscape:window-maximized="1"
     inkscape:current-layer="svg1" />
  <!-- Generator: Sketch 52.2 (67145) - http://www.bohemiancoding.com/sketch -->
  <title
     id="title1">Master 1024x1024</title>
  <desc
     id="desc1">Created with Sketch.</desc>
  <g
     id="Master-1024x1024"
     stroke="none"
     stroke-width="1"
     fill="none"
     fill-rule="evenodd"
     transform="matrix(0.29970058,0,0,0.29970058,33.008644,4.3583476)">
    <path
       d="m 447.0402,386.11932 c 0.74431,62.38565 -26.18019,122.43708 -73.81584,164.62087 -37.91111,33.93846 -85.74093,53.43503 -135.48005,55.33263 -22.99262,18.72409 -50.87177,29.85779 -80.72495,31.82256 -3.18758,0.2183 -6.37515,0.35265 -9.56273,0.35265 -76.259104,0 -140.4313118,-61.81469 -146.2725037,-140.74136 -0.064722,-0.90682 -0.1294447,-2.18308 -0.19416704,-3.81199 -0.0809029,-0.55416 -0.14562528,-1.12512 -0.14562528,-1.74646 -1.488614,-33.23316 -0.744307,-60.68957 0.21034762,-78.17098 0.8737517,-16.1212 1.4238917,-45.12255 1.488614,-51.87329 v -0.41983 c 0.4045147,-23.59403 6.0353589,-46.61711 16.2776704,-67.25559 -2.912506,-23.09025 -2.847783,-47.79262 0.27507,-73.70407 l 0.404515,-4.0303 c 0.0809,-0.48699 0.0809,-1.05795 0.129444,-1.54495 0.0809,-0.41982 0.145626,-0.90681 0.210348,-1.39381 2.572713,-22.04909 7.054736,-58.17063 26.050745,-95.19899 C 77.507955,56.256239 137.48939,19.211086 206.27306,19.211086 h 2.91251 C 230.8352,6.6835771 255.18698,0 280.21835,0 h 2.65361 c 79.64085,1.4777758 144.42792,69.77453 144.42792,152.29488 0,0.90681 -2.71834,99.901 -5.77647,133.7723 16.48802,29.92496 25.177,63.86342 25.51679,100.05214"
       id="scratch-white-outline"
       fill="#ffffff" />
    <path
       d="m 379.34545,386.49566 c 0.55014,41.32734 -17.76628,81.74787 -50.27308,110.5477 -27.60408,24.71916 -62.87776,38.3718 -99.17082,38.3718 -6.2457,-0.0672 -12.55613,-0.41982 -18.73712,-1.27626 -1.42389,1.98156 -2.9125,3.87916 -4.46584,5.70959 -13.98003,16.40667 -33.25111,26.12976 -54.28587,27.38923 -1.61806,0.13434 -3.18757,0.20151 -4.80563,0.20151 -41.05015,0 -75.579524,-33.3675 -78.637655,-75.88715 -0.06472,-0.83964 -0.129445,-1.69608 -0.129445,-2.6029 l -0.06472,-0.63813 c -1.359169,-30.27761 -0.679585,-55.19828 0.129445,-70.76531 1.019376,-18.01879 1.569516,-48.64905 1.634239,-55.26546 0.339792,-20.70565 7.99321,-39.49691 20.4199,-53.80447 -6.180984,-22.16664 -8.155015,-48.7834 -4.352577,-80.2533 l 0.485417,-4.58447 c 0.06472,-0.35265 0.06472,-0.7053 0.129445,-1.05795 2.168199,-18.43861 5.420496,-45.6935 18.785661,-71.7393 19.95066,-39.14427 56.58351,-61.613178 100.41672,-61.613178 2.44327,0 5.01598,0.06717 7.6696,0.218308 4.61147,0.285479 9.28766,0.839645 13.8344,1.696083 14.23892,-13.316775 33.1702,-21.562093 53.9299,-21.125477 42.87855,0.772474 77.74772,37.515354 77.74772,81.882214 0,0.97399 -3.80244,119.48154 -5.63085,129.7588 -1.0841,6.41489 -2.9125,12.5275 -5.29105,18.30427 19.74032,23.6612 30.38714,53.16634 30.66221,86.53385"
       id="scratch-orange-outline"
       fill="#f9a83a" />
    <path
       d="m 208.17521,301.9293 c -20.339,-3.29141 -31.19617,-17.41424 -25.80804,-61.10939 l 0.63104,-5.27297 c 4.53057,-37.96876 8.33301,-46.4156 25.93748,-45.42482 5.14543,0.33586 11.08371,3.71124 17.0058,8.7659 5.5014,6.59961 17.71774,15.1472 24.59449,32.07445 4.93508,12.42676 6.63404,20.53773 7.34599,29.25325 l 1.0841,10.69708 v -0.0504 c 1.45625,7.32171 6.86057,13.33357 14.336,14.64342 9.62745,1.83043 18.91511,-4.81957 20.59789,-14.81135 0.22652,-1.19229 4.5791,-116.27409 4.5791,-118.15489 0,-10.14292 -7.8314,-18.37144 -17.6692,-18.53937 -9.80543,-0.0504 -17.76628,8.22852 -17.76628,18.33785 0,0.21831 -0.0485,16.1044 -0.37216,32.12483 -13.98002,-15.78533 -31.87575,-29.92496 -51.90732,-31.15084 -53.62246,-2.97234 -59.47984,48.19565 -63.0072,77.68399 l -0.53396,5.22259 c -7.23273,58.27139 11.50439,95.03107 55.49941,102.16805 47.81363,7.79191 79.73793,19.1943 80.02918,49.7238 0.17799,11.87259 -5.84119,24.04744 -16.34239,33.41789 -12.65322,11.16728 -29.57811,16.18836 -45.53217,13.46791 -4.95126,-0.78927 -9.59509,-2.19987 -14.04475,-3.72803 -6.26189,-3.62726 -22.03796,-13.58546 -30.04735,-25.0886 -6.74731,-9.7063 -9.09349,-24.95426 -9.82162,-34.62697 0.0809,-4.33258 0.0971,-7.20416 0.0971,-7.52323 0.17798,-10.19329 -7.70196,-18.48899 -17.41032,-18.72409 -9.85397,-0.2351 -17.94427,7.99343 -18.12225,18.16993 0,0.33586 -0.43688,36.39023 -1.71515,58.10346 -1.8284,34.97962 0,64.60231 0,65.89536 0.72813,10.15971 9.14204,17.81728 18.94747,17.14556 9.77308,-0.53737 17.21615,-9.33685 16.53656,-19.51336 0,-0.16793 -0.87375,-14.52586 -0.76049,-34.35828 13.0092,8.61476 30.0959,16.99442 50.43489,20.5881 26.53617,4.61805 53.67101,-3.34179 74.39834,-21.83078 18.55914,-16.47384 29.18978,-38.99313 28.89853,-61.78111 -0.63104,-68.02806 -74.60869,-79.98461 -110.09271,-85.79496"
       id="scratch-white-fill"
       fill="#ffffff" />
  </g>
  <metadata
     id="metadata1">
    <rdf:RDF>
      <cc:Work
         rdf:about="">
        <dc:title>Master 1024x1024</dc:title>
      </cc:Work>
    </rdf:RDF>
  </metadata>
</svg>
