<?xml version="1.0" encoding="UTF-8" standalone="no"?>
<svg
   id="Layer_1"
   data-name="Layer 1"
   version="1.1"
   viewBox="0 0 300 100"
   sodipodi:docname="logo.svg"
   width="300"
   height="100"
   inkscape:version="1.3.2 (091e20ef0f, 2023-11-25, custom)"
   xmlns:inkscape="http://www.inkscape.org/namespaces/inkscape"
   xmlns:sodipodi="http://sodipodi.sourceforge.net/DTD/sodipodi-0.dtd"
   xmlns="http://www.w3.org/2000/svg"
   xmlns:svg="http://www.w3.org/2000/svg">
  <sodipodi:namedview
     id="namedview8"
     pagecolor="#ffffff"
     bordercolor="#000000"
     borderopacity="0.25"
     inkscape:showpageshadow="2"
     inkscape:pageopacity="0.0"
     inkscape:pagecheckerboard="0"
     inkscape:deskcolor="#d1d1d1"
     inkscape:zoom="1.4915534"
     inkscape:cx="336.8971"
     inkscape:cy="149.84378"
     inkscape:window-width="1906"
     inkscape:window-height="1025"
     inkscape:window-x="1920"
     inkscape:window-y="41"
     inkscape:window-maximized="1"
     inkscape:current-layer="Layer_1" />
  <defs
     id="defs1">
    <style
       id="style1">
      .cls-1 {
        stroke-width: 0px;
      }

      .cls-1, .cls-2, .cls-3 {
        fill: #000;
      }

      .cls-2 {
        font-size: 60.97px;
      }

      .cls-2, .cls-3 {
        font-family: WorkSans-Regular, 'Work Sans';
      }

      .cls-3 {
        font-size: 108.38px;
      }
    </style>
  </defs>
  <g
     id="g7"
     transform="matrix(0.32654687,0,0,0.32654687,-70.1579,-37.367615)">
    <path
       class="cls-1"
       d="m 423.46,309.43 c 5.95,0 11.34,-1.34 16.72,-3.45 6.53,-2.7 10.18,-5.39 14.02,-5.39 6.53,0 10.18,7.69 10.18,12.68 0,4.61 -2.88,8.26 -8.07,11.34 -8.84,5.38 -21.9,7.88 -33.24,7.88 -34.39,0 -63.21,-22.67 -63.21,-64.75 0,-42.08 30.16,-64.17 63.4,-64.17 12.29,0 24.4,2.88 32.85,7.88 5.57,3.27 8.26,6.92 8.26,11.14 0,4.99 -3.45,13.26 -10.37,13.26 -3.84,0 -7.88,-2.89 -14.6,-5.57 -5.19,-2.11 -10.38,-3.65 -16.91,-3.65 -18.45,0 -36.12,11.91 -36.12,40.35 0,28.44 18.45,42.46 37.08,42.46"
       id="path1" />
    <path
       class="cls-1"
       d="m 972.32,309.71 c 4.23,0 7.3,0 9.8,1.92 2.49,1.73 3.84,4.33 3.84,9.33 0,5 -1.35,7.87 -3.84,9.61 -2.5,1.92 -5.57,1.92 -9.8,1.92 h -49 c -9.22,0 -12.29,-3.65 -12.29,-12.29 V 219.47 c 0,-4.42 0,-7.68 1.92,-10.18 1.92,-2.69 5.76,-4.03 11.14,-4.03 5.38,0 9.03,1.34 10.95,4.03 1.92,2.5 1.92,5.76 1.92,10.18 v 90.25 h 35.35 z"
       id="path2" />
    <path
       class="cls-1"
       d="m 586.68,208.19 c -1.92,-2.69 -5.57,-4.04 -11.14,-4.04 -6.33,0 -9.21,1.73 -10.95,4.04 -1.92,2.49 -1.92,5.76 -1.92,10.18 v 34.19 h -23.22 c -10.02,0 -18.14,8.12 -18.14,18.14 0,2.61 2.11,4.73 4.72,4.73 h 36.64 v 42.64 c 0,4.61 0,7.88 1.92,10.38 1.73,2.3 4.61,4.03 10.95,4.03 5.57,0 9.22,-1.34 11.14,-4.03 1.92,-2.5 1.92,-5.76 1.92,-10.38 v -99.71 c 0,-4.42 0,-7.69 -1.92,-10.18 m -85.97,-4.03 c -5.76,0 -9.23,1.35 -11.14,4.04 -1.92,2.49 -1.92,5.76 -1.92,10.18 v 99.71 c 0,4.61 0,7.88 1.92,10.38 1.92,2.69 5.38,4.03 11.14,4.03 5.76,0 9.02,-1.34 10.94,-4.03 1.92,-2.5 1.92,-5.76 1.92,-10.38 v -99.71 c 0,-4.42 0,-7.69 -1.92,-10.18 -1.92,-2.69 -5.36,-4.04 -10.94,-4.04"
       id="path3" />
    <path
       class="cls-1"
       d="m 672.85,202.61 c 39.77,0 64.94,27.48 64.94,64.75 0,37.27 -25.94,65.13 -65.9,65.13 -39.96,0 -64.94,-27.48 -64.94,-64.75 0,-37.27 25.94,-65.13 65.9,-65.13 m -0.39,107.78 c 24.01,0 38.81,-15.76 38.81,-42.66 0,-26.9 -14.98,-43.04 -39,-43.04 -24.02,0 -38.81,15.76 -38.81,42.66 0,26.9 14.99,43.04 39,43.04"
       id="path4" />
    <path
       class="cls-1"
       d="m 820.6,202.61 c 39.77,0 64.94,27.48 64.94,64.75 0,37.27 -25.94,65.13 -65.9,65.13 -39.96,0 -64.94,-27.48 -64.94,-64.75 0,-37.27 25.94,-65.13 65.9,-65.13 m -0.39,107.78 c 24.01,0 38.81,-15.76 38.81,-42.66 0,-26.9 -14.98,-43.04 -39,-43.04 -24.02,0 -38.81,15.76 -38.81,42.66 0,26.9 14.99,43.04 39,43.04"
       id="path5" />
    <path
       class="cls-1"
       d="m 325.26,262.55 c 10.57,6.73 19.41,16.52 19.41,32.47 0,24.02 -19.98,37.47 -42.27,37.47 -9.23,0 -19.02,-2.3 -26.9,-6.34 -5.57,-2.88 -10.18,-6.92 -10.18,-12.48 0,-5.56 4.03,-12.49 10.37,-12.49 7.11,0 13.07,9.42 25.94,9.42 9.99,0 17.1,-5.57 17.1,-14.41 0,-8.84 -7.68,-14.02 -15.75,-18.25 -12.29,-6.53 -35.16,-15.37 -35.16,-39.19 0,-21.13 17.67,-35.16 40.73,-35.16 16.91,0 33.82,7.49 33.82,17.29 0,5.38 -4.8,12.1 -10.76,12.1 -6.34,0 -12.68,-7.49 -23.25,-7.49 -8.84,0 -14.6,4.99 -14.6,11.92 0,11.91 18.06,16.71 31.51,25.17"
       id="path6" />
    <path
       class="cls-1"
       d="m 1063.67,262.55 c 10.57,6.73 19.41,16.52 19.41,32.47 0,24.02 -19.98,37.47 -42.27,37.47 -9.23,0 -19.02,-2.3 -26.9,-6.34 -5.57,-2.88 -10.18,-6.92 -10.18,-12.48 0,-5.56 4.03,-12.49 10.37,-12.49 7.11,0 13.07,9.42 25.94,9.42 9.99,0 17.1,-5.57 17.1,-14.41 0,-8.84 -7.68,-14.02 -15.75,-18.25 -12.29,-6.53 -35.16,-15.37 -35.16,-39.19 0,-21.13 17.67,-35.16 40.73,-35.16 16.91,0 33.82,7.49 33.82,17.29 0,5.38 -4.8,12.1 -10.76,12.1 -6.34,0 -12.68,-7.49 -23.25,-7.49 -8.84,0 -14.6,4.99 -14.6,11.92 0,11.91 18.06,16.71 31.51,25.17"
       id="path7" />
  </g>
</svg>
