<?xml version="1.0" encoding="UTF-8" standalone="no"?>
<svg
   id="Layer_1"
   data-name="Layer 1"
   version="1.1"
   viewBox="0 0 300 100"
   sodipodi:docname="qa.svg"
   width="300"
   height="100"
   inkscape:version="1.3.2 (091e20ef0f, 2023-11-25, custom)"
   xmlns:inkscape="http://www.inkscape.org/namespaces/inkscape"
   xmlns:sodipodi="http://sodipodi.sourceforge.net/DTD/sodipodi-0.dtd"
   xmlns="http://www.w3.org/2000/svg"
   xmlns:svg="http://www.w3.org/2000/svg">
  <sodipodi:namedview
     id="namedview8"
     pagecolor="#ffffff"
     bordercolor="#000000"
     borderopacity="0.25"
     inkscape:showpageshadow="2"
     inkscape:pageopacity="0.0"
     inkscape:pagecheckerboard="0"
     inkscape:deskcolor="#d1d1d1"
     inkscape:zoom="0.50512445"
     inkscape:cx="683"
     inkscape:cy="384.06377"
     inkscape:window-width="1920"
     inkscape:window-height="1080"
     inkscape:window-x="1920"
     inkscape:window-y="0"
     inkscape:window-maximized="0"
     inkscape:current-layer="Layer_1" />
  <defs
     id="defs1">
    <style
       id="style1">
      .cls-1 {
        fill: #f79420;
      }

      .cls-1, .cls-2 {
        stroke-width: 0px;
      }

      .cls-2 {
        fill: #0075bb;
      }
    </style>
  </defs>
  <g
     id="g8"
     transform="matrix(0.2601916,0,0,0.2601916,-26.803256,-45.372211)">
    <path
       class="cls-2"
       d="m 743.56,372.5 c 4.9,-5.85 4.9,-13.66 4.9,-19.84 v -46.62 c 0,-3.55 0,-6.14 1.57,-8.15 1.53,-2.16 4.46,-3.22 8.77,-3.22 4.31,0 7.2,1.06 8.73,3.22 1.57,2.01 1.57,4.6 1.57,8.15 v 45.56 c 0,9.97 0,22.29 -8.95,32.59 -6.76,7.86 -17.39,13.08 -34.89,13.08 -17.5,0 -28.31,-5.52 -34.78,-13.08 -8.91,-10.3 -8.91,-21.81 -8.91,-32.59 v -45.56 c 0,-3.55 0,-6.14 1.53,-8.15 1.53,-2.16 4.31,-3.22 8.91,-3.22 4.6,0 7.23,1.06 8.77,3.22 1.53,2.01 1.53,4.6 1.53,8.15 v 46.62 c 0,6.18 0,13.99 4.93,19.84 3.69,4.46 9.68,6.94 18.16,6.94 8.48,0 14.47,-2.48 18.16,-6.94 m 185.01,-31.53 c -10.74,-6.76 -25.21,-10.59 -25.21,-20.17 0,-5.52 4.6,-9.54 11.69,-9.54 8.44,0 13.52,6.03 18.6,6.03 4.79,0 8.62,-5.41 8.62,-9.72 0,-7.82 -13.55,-13.81 -27.07,-13.81 -18.45,0 -32.62,11.21 -32.62,28.13 0,19.07 18.34,26.16 28.17,31.38 6.47,3.4 12.6,7.38 12.6,14.61 0,7.23 -5.7,11.55 -13.7,11.55 -10.3,0 -15.05,-7.56 -20.75,-7.56 -5.08,0 -8.33,5.7 -8.33,10.01 0,4.31 3.73,7.71 8.18,10.01 6.28,3.21 14.14,5.08 21.52,5.08 17.86,0 33.83,-10.78 33.83,-29.99 0,-12.79 -7.05,-20.64 -15.53,-26.01 M 684.74,523.61 v -70.73 c 0,-3.55 0,-6.17 -1.57,-8.18 -1.53,-2.16 -4.6,-3.21 -8.77,-3.21 -4.17,0 -7.38,1.06 -8.91,3.21 -1.53,2.01 -1.53,4.64 -1.53,8.18 v 79.35 c 0,6.94 2.45,9.87 9.86,9.87 h 39.2 c 3.4,0 5.85,0 7.85,-1.53 2.01,-1.39 3.07,-3.69 3.07,-7.71 0,-4.02 -1.06,-6.32 -3.07,-7.67 -2.01,-1.57 -4.46,-1.57 -7.85,-1.57 h -28.28 z m 77.96,0 v -70.73 c 0,-3.55 0,-6.17 -1.53,-8.18 -1.53,-2.16 -4.6,-3.21 -8.77,-3.21 -4.17,0 -7.38,1.06 -8.91,3.21 -1.54,2.01 -1.54,4.64 -1.54,8.18 v 79.35 c 0,6.94 2.45,9.87 9.83,9.87 h 39.24 c 3.4,0 5.85,0 7.86,-1.53 1.97,-1.39 3.07,-3.69 3.07,-7.71 0,-4.02 -1.1,-6.32 -3.07,-7.67 -2.01,-1.57 -4.46,-1.57 -7.86,-1.57 H 762.7 Z m 78,-70.73 c 0,-3.4 0,-6.17 -1.53,-8.18 -1.53,-2.16 -4.31,-3.21 -8.77,-3.21 -4.46,0 -7.38,1.06 -8.91,3.21 -1.53,2.01 -1.53,4.79 -1.53,8.18 v 78.59 c 0,3.69 0,6.32 1.53,8.29 1.54,2.19 4.31,3.25 8.91,3.25 4.6,0 7.24,-1.06 8.77,-3.25 1.53,-1.97 1.53,-4.6 1.53,-8.29 z m 148.92,23.38 46.76,58.45 c 4.46,5.52 7.53,8.59 13.7,8.59 6.17,0 9.39,-2.92 9.39,-8.29 v -82.13 c 0,-3.55 0,-6.17 -1.54,-8.18 -1.53,-2.01 -4.16,-3.21 -8.47,-3.21 -4.31,0 -6.91,1.21 -8.44,3.21 -1.57,2.01 -1.57,4.64 -1.57,8.18 v 54.58 l -44.9,-57.07 c -4.17,-5.37 -7.24,-8.91 -14.62,-8.91 -6.94,0 -10.3,2.92 -10.3,8.15 v 81.84 c 0,3.69 0,6.32 1.53,8.29 1.53,2.01 4.17,3.25 8.48,3.25 4.31,0 6.91,-1.24 8.44,-3.25 1.54,-1.97 1.54,-4.75 1.54,-8.29 v -55.2 z m 142.16,49.07 c -14.91,0 -29.7,-10.63 -29.7,-34.01 0,-23.38 14.17,-32.3 28.94,-32.3 5.22,0 9.39,1.24 13.52,2.92 5.41,2.16 8.62,4.46 11.73,4.46 5.52,0 8.29,-6.61 8.29,-10.63 0,-3.36 -2.16,-6.28 -6.61,-8.91 -6.8,-3.98 -16.48,-6.28 -26.31,-6.28 -26.63,0 -50.78,16.73 -50.78,51.37 0,34.64 23.09,51.84 50.6,51.84 9.1,0 19.55,-2.01 26.63,-6.32 4.17,-2.45 6.47,-5.37 6.47,-9.06 0,-3.98 -2.92,-10.16 -8.15,-10.16 -3.11,0 -6.03,2.16 -11.25,4.31 -4.27,1.68 -8.62,2.78 -13.37,2.78 M 665.56,398.52 c -0.51,-2.41 -2.63,-4.35 -7.93,-8.4 l -10.3,-7.82 -8.51,-6.28 c -3.76,-2.78 -8.81,-2.96 -12.82,-0.55 -4.68,2.81 -10.37,4.27 -16.95,4.27 -19.25,0 -31.24,-12.6 -31.24,-34.45 0,-21.85 11.83,-34.16 31.09,-34.16 19.26,0 31.2,12.64 31.2,34.45 0,2.81 -0.18,5.44 -0.58,7.93 -0.81,5.19 1.35,10.41 5.59,13.48 l 6.25,4.57 c 1.46,1.02 3.51,0.55 4.31,-1.02 3.69,-7.38 5.7,-15.89 5.7,-25.25 0,-29.85 -20.17,-51.84 -52.03,-51.84 -31.86,0 -52.76,21.99 -52.76,52.14 0,30.15 20.13,51.88 51.99,51.88 6.94,0 11.25,-1.1 11.25,-1.1 3.51,-0.7 7.42,-1.9 10.78,-3.18 l 7.27,6.69 c 7.05,6.5 10.96,8.66 18.49,7.05 7.67,-1.64 9.9,-5.26 9.21,-8.4 m 194.61,-19.7 c -2.01,-1.39 -4.46,-1.53 -7.71,-1.53 h -39.6 v -63.53 h 36.06 c 3.25,0 5.7,0 7.71,-1.39 2.01,-1.39 3.07,-3.69 3.07,-7.52 0,-3.83 -1.06,-6.17 -3.07,-7.56 -2.01,-1.39 -4.46,-1.53 -7.71,-1.53 h -46.37 c -7.09,0 -9.83,2.63 -9.83,9.83 v 79.87 c 0,7.09 2.45,9.86 9.83,9.86 h 49.91 c 3.25,0 5.7,0 7.71,-1.39 1.97,-1.39 3.21,-3.69 3.21,-7.56 0,-3.87 -1.24,-6.14 -3.21,-7.52 m -17.1,-27.25 c 3.4,0 5.85,-0.18 7.86,-1.53 2.01,-1.39 3.07,-3.69 3.07,-7.56 0,-3.87 -1.06,-5.99 -3.07,-7.38 -2.01,-1.39 -4.46,-1.53 -7.86,-1.53 h -11.54 c -5.55,0 -10.05,4.49 -10.05,10.08 v 5.01 c 0,1.61 1.28,2.92 2.89,2.92 h 18.7 z m 158.05,-28.65 c -6.68,0 -12.09,5.44 -12.09,12.13 v 49.58 c 0,3.69 0,6.28 1.53,8.29 1.54,2.16 4.6,3.25 8.92,3.25 4.32,0 7.23,-1.1 8.77,-3.25 1.53,-2.01 1.53,-4.6 1.53,-8.29 v -58.79 c 0,-1.61 -1.28,-2.92 -2.89,-2.92 z m 36.65,-25.54 c -1.97,-1.53 -4.46,-1.68 -7.67,-1.68 h -61.23 c -3.36,0 -5.84,0.14 -7.85,1.68 -1.97,1.39 -3.07,3.54 -3.07,7.56 0,4.02 1.1,6.47 3.07,7.82 2.01,1.57 4.49,1.57 7.85,1.57 h 61.23 c 3.22,0 5.7,0 7.67,-1.57 2.01,-1.35 3.1,-3.65 3.1,-7.82 0,-4.17 -1.1,-6.17 -3.1,-7.56 M 644.4,531.18 612.87,452.27 c -2.78,-6.8 -5.08,-11.11 -12.46,-11.11 -7.38,0 -9.86,4.16 -12.6,10.92 l -32.77,78.95 c -0.95,2.3 -1.53,3.98 -1.53,5.85 0,3.51 2.45,6.14 9.06,6.14 7.86,0 10.16,-3.54 12.6,-9.86 l 6.47,-17.06 6.47,-16.92 11.55,-30 11.4,30 h -3.87 c -5.26,0 -9.94,3.29 -11.73,8.26 l -1.72,4.79 c -0.69,1.86 0.7,3.87 2.74,3.87 h 20.86 l 6.32,17.06 c 2.6,6.94 4.9,9.86 12.13,9.86 6.47,0 9.86,-2.3 9.86,-6.32 0,-1.53 -0.47,-3.54 -1.24,-5.52 m 306.08,0 -31.53,-78.91 c -2.78,-6.8 -5.11,-11.11 -12.49,-11.11 -7.38,0 -9.83,4.16 -12.6,10.92 l -32.77,78.95 c -0.91,2.3 -1.54,3.98 -1.54,5.85 0,3.51 2.49,6.14 9.1,6.14 7.82,0 10.12,-3.54 12.6,-9.86 l 6.47,-17.06 6.47,-16.92 h -0.04 l 11.55,-30 11.4,30 h -3.84 c -5.3,0 -9.97,3.29 -11.76,8.26 l -1.72,4.79 c -0.66,1.86 0.73,3.87 2.74,3.87 h 20.9 l 6.28,17.06 c 2.63,6.94 4.93,9.86 12.17,9.86 6.47,0 9.83,-2.3 9.83,-6.32 0,-1.53 -0.44,-3.54 -1.2,-5.52 m 302.27,-5.48 c -2.01,-1.39 -4.49,-1.53 -7.71,-1.53 h -39.6 v -63.54 h 36.06 c 3.21,0 5.7,0 7.67,-1.39 2.01,-1.39 3.11,-3.69 3.11,-7.52 0,-3.83 -1.1,-6.18 -3.11,-7.53 -1.97,-1.39 -4.46,-1.53 -7.67,-1.53 h -46.36 c -7.09,0 -9.86,2.59 -9.86,9.83 v 79.86 c 0,7.05 2.48,9.83 9.86,9.83 h 49.91 c 3.22,0 5.7,0 7.71,-1.39 1.97,-1.39 3.22,-3.69 3.22,-7.53 0,-3.84 -1.24,-6.17 -3.22,-7.56 m -17.1,-27.22 c 3.4,0 5.85,-0.15 7.86,-1.53 2.01,-1.39 3.07,-3.69 3.07,-7.53 0,-3.84 -1.06,-6.03 -3.07,-7.41 -2.01,-1.39 -4.46,-1.53 -7.86,-1.53 h -11.55 c -5.55,0 -10.05,4.53 -10.05,10.08 v 5.04 c 0,1.61 1.28,2.89 2.89,2.89 h 18.71 z"
       id="path1" />
    <path
       class="cls-1"
       d="M 274.54,320.47 279,305.2 c 1.64,-5.66 6.83,-9.54 12.75,-9.54 h 35.55 l -15.75,-48.48 c 9.94,1.61 19.66,4.49 28.86,8.55 l 11.36,35 c 0.95,2.92 3.69,4.93 6.76,4.93 h 103.83 c 5.74,0 11.14,1.79 15.6,5.22 4.06,3.14 7.05,7.42 8.66,12.39 1.61,4.97 1.68,10.19 0.26,15.09 -1.57,5.41 -4.86,10.05 -9.54,13.41 l -9.86,7.16 c -0.4,0.33 -0.88,0.48 -1.39,0.48 -0.66,0 -1.35,-0.29 -1.83,-0.8 -0.29,-0.37 -0.66,-0.95 -0.58,-1.83 0.69,-7.13 0.33,-13.41 -1.21,-19.8 -0.91,-3.8 -4.35,-6.5 -8.26,-6.5 H 274.53 Z"
       id="path2" />
    <path
       class="cls-1"
       d="m 191.6,542.91 c -5.15,-0.14 -10.08,-1.83 -14.29,-4.9 -4.24,-3.07 -7.38,-7.23 -9.1,-12.09 -1.9,-5.26 -1.97,-10.96 -0.18,-16.44 l 3.87,-11.87 c 0.4,-1.24 1.5,-1.68 2.3,-1.68 0.4,0 1.42,0.15 2.05,1.21 3.69,6.36 7.64,11.29 12.42,15.49 1.57,1.35 3.58,2.12 5.63,2.12 1.83,0 3.54,-0.55 5.01,-1.61 l 145.15,-105.47 5.33,15.05 c 1.94,5.52 0,11.73 -4.71,15.16 L 207.27,538.02 c -4.42,3.22 -9.61,4.93 -14.94,4.93 z m 230.79,-30.76 c -0.18,0 -0.37,-0.07 -0.51,-0.22 l -31.9,-23.82 -8.7,-26.31 -40.08,-123.31 16.33,-0.44 c 5.77,0 10.82,3.69 12.6,9.17 l 10.96,33.8 41.07,-29.92 c 0.88,5.85 1.35,11.84 1.35,17.79 0,4.09 -0.22,8.26 -0.66,12.39 l -29.52,21.52 c -2.48,1.83 -3.51,5.01 -2.56,7.97 l 32.08,98.72 c 0.15,0.48 0.29,0.99 0.44,1.46 0.07,0.33 0.03,0.58 -0.15,0.8 -0.18,0.22 -0.48,0.4 -0.77,0.4 M 206.73,471.19 c -7.09,-7.16 -13.26,-15.16 -18.34,-23.82 l 11.76,-36.61 c 0.91,-2.96 -0.11,-6.14 -2.59,-7.93 l -83.99,-61.05 c -4.68,-3.36 -7.97,-8 -9.53,-13.41 -1.46,-4.93 -1.35,-10.12 0.25,-15.09 1.61,-4.97 4.6,-9.24 8.66,-12.39 4.46,-3.43 9.83,-5.26 15.6,-5.26 h 12.02 c 0.99,0 1.79,0.55 2.19,1.43 0.4,0.88 0.26,1.83 -0.36,2.56 -4.79,5.44 -8.04,10.63 -10.6,16.84 -1.46,3.58 -0.26,7.71 2.92,10.01 l 145.05,105.4 -12.28,9.5 c -1.83,1.39 -3.87,2.41 -6.1,2.81 -3.65,0.59 -7.23,-0.26 -10.12,-2.34 l -28.42,-20.68 -16.11,50.02 z m 16.98,-102.04 c -4.9,-3.32 -7.01,-9.46 -5.19,-15.09 l 10.92,-33.58 h -52.21 c 4.6,-8.95 10.3,-17.28 17.02,-24.84 h 38.11 c 3.07,0 5.81,-1.97 6.76,-4.9 l 32.04,-98.75 c 1.79,-5.48 5.19,-10.05 9.83,-13.19 4.24,-2.89 9.25,-4.42 14.47,-4.42 5.22,0 10.2,1.53 14.43,4.42 4.64,3.14 8.04,7.71 9.79,13.19 l 3.69,11.29 c 0.33,0.99 -0.07,1.75 -0.36,2.12 -0.44,0.66 -1.17,1.02 -1.9,1.02 -0.33,0 -0.66,-0.07 -0.95,-0.18 -6.5,-2.81 -12.42,-4.24 -19.18,-4.71 h -0.58 c -3.69,0 -6.94,2.34 -8.11,5.88 l -55.46,170.66 -13.12,-8.91 z"
       id="path3" />
    <path
       class="cls-2"
       d="m 249.63,258.39 8.99,-27.73 c -45.3,11.58 -82.35,43.99 -100.32,86.37 -1.57,3.69 -0.29,7.93 3.03,10.16 l 14.69,9.94 c 11.47,-35.99 38.73,-64.96 73.62,-78.73"
       id="path4" />
    <path
       class="cls-2"
       d="m 392.43,295.65 h 29.01 c -24.3,-38.47 -65.73,-65.07 -113.48,-69.09 -3.98,-0.33 -7.63,2.23 -8.69,6.06 l -4.82,17.06 c 0.37,0 0.7,-0.04 1.02,-0.04 39.02,0 73.95,17.94 96.96,46"
       id="path5" />
    <path
       class="cls-2"
       d="m 420.85,375.04 c 0,24.81 -7.27,47.93 -19.77,67.44 l 8.99,27.66 c 21.45,-25.83 34.38,-58.97 34.38,-95.1 0,-11.33 -1.28,-22.36 -3.73,-32.96 -0.88,-3.87 -4.42,-6.58 -8.37,-6.47 l -17.72,0.58 c 3.98,12.24 6.21,25.28 6.21,38.84"
       id="path6" />
    <path
       class="cls-2"
       d="m 170.4,383.1 -23.6,-17.13 c -0.18,2.99 -0.29,6.03 -0.29,9.1 0,44.39 19.55,84.29 50.49,111.58 2.96,2.63 7.42,2.81 10.56,0.36 l 14.1,-10.74 C 192.47,454.93 172.85,421.32 170.4,383.11"
       id="path7" />
    <path
       class="cls-2"
       d="m 413.77,529.22 -55.64,-40.41 c -2.45,-1.79 -5.66,-2.12 -8.4,-0.8 -16.4,7.97 -34.82,12.39 -54.26,12.39 -10.7,0 -21.12,-1.35 -31.05,-3.91 l -23.53,17.14 c 16.92,6.68 35.33,10.41 54.58,10.41 19.25,0 37.67,-3.73 54.58,-10.41 l 34.01,24.7 c 7.96,5.77 18.56,6.28 27.04,1.28 l 2.23,-1.28 c 3.36,-2.01 3.62,-6.79 0.44,-9.1"
       id="path8" />
  </g>
</svg>
